<svg id="Capa_1" enable-background="new 0 0 512 512" height="512" viewBox="0 0 512 512" width="512" xmlns="http://www.w3.org/2000/svg"><g id="XMLID_198_"><g id="XMLID_1871_"><path id="XMLID_1231_" d="m310 90-54-80-54 80h22v84h64v-84z" fill="#f5737f"/><path id="XMLID_1230_" d="m426 132-76 120h28v128h96v-128h28z" fill="#78d0a9"/><path id="XMLID_1224_" d="m130 118-120 188h46v196h148v-196h46z" fill="#79b2ff"/></g><g id="XMLID_184_"><g id="XMLID_194_"><path id="XMLID_195_" d="m288 184h-64c-5.522 0-10-4.478-10-10v-74h-12c-3.698 0-7.095-2.041-8.83-5.307-1.736-3.266-1.527-7.223.542-10.288l54-80c1.858-2.755 4.965-4.405 8.288-4.405s6.43 1.65 8.288 4.405l54 80c2.069 3.065 2.278 7.022.542 10.288-1.735 3.266-5.132 5.307-8.83 5.307h-12v74c0 5.523-4.477 10-10 10zm-54-20h44v-74c0-5.522 4.478-10 10-10h3.186l-35.186-52.126-35.185 52.126h3.185c5.522 0 10 4.478 10 10z"/></g><g id="XMLID_190_"><path id="XMLID_191_" d="m474 390h-96c-5.522 0-10-4.478-10-10v-118h-18c-3.646 0-7.003-1.984-8.761-5.179s-1.639-7.092.313-10.172l76-120c1.834-2.895 5.021-4.649 8.448-4.649s6.614 1.755 8.448 4.649l76 120c1.951 3.08 2.07 6.978.313 10.172s-5.115 5.179-8.761 5.179h-18v118c0 5.523-4.477 10-10 10zm-86-20h76v-118c0-5.522 4.478-10 10-10h9.83l-57.83-91.31-57.83 91.31h9.83c5.522 0 10 4.478 10 10z"/></g><g id="XMLID_188_"><path id="XMLID_189_" d="m204 512h-148c-5.522 0-10-4.478-10-10v-186h-36c-3.652 0-7.014-1.991-8.77-5.194-1.755-3.202-1.625-7.107.34-10.186l120-188c1.837-2.878 5.016-4.62 8.43-4.62s6.593 1.742 8.43 4.62l120 188c1.965 3.078 2.095 6.983.34 10.186-1.756 3.203-5.117 5.194-8.77 5.194h-36v43c0 5.522-4.478 10-10 10s-10-4.478-10-10v-53c0-5.522 4.478-10 10-10h27.754l-101.754-159.414-101.754 159.414h27.754c5.522 0 10 4.478 10 10v186h128v-43c0-5.522 4.478-10 10-10s10 4.478 10 10v53c0 5.523-4.477 10-10 10z"/></g><g id="XMLID_185_"><g id="XMLID_186_"><path id="XMLID_187_" d="m204 414c-2.63 0-5.21-1.07-7.07-2.931-1.86-1.859-2.93-4.439-2.93-7.069s1.069-5.21 2.93-7.07 4.44-2.93 7.07-2.93 5.21 1.069 7.069 2.93c1.86 1.86 2.931 4.44 2.931 7.07s-1.07 5.21-2.931 7.069c-1.859 1.861-4.439 2.931-7.069 2.931z"/></g></g></g></g></svg>