<svg id="Human_Resource" height="512" viewBox="0 0 64 64" width="512" xmlns="http://www.w3.org/2000/svg" xmlns:xlink="http://www.w3.org/1999/xlink" data-name="Human Resource"><linearGradient id="gradient_ice" gradientUnits="userSpaceOnUse" x1="-3.158" x2="47.926" y1="63.225" y2="6.946"><stop offset="0" stop-color="#fff200"/><stop offset="1" stop-color="#cd118c"/></linearGradient><linearGradient id="gradient_ice-2" x1="-14.107" x2="36.977" xlink:href="#gradient_ice" y1="53.287" y2="-2.992"/><linearGradient id="gradient_ice-3" x1=".469" x2="51.553" xlink:href="#gradient_ice" y1="66.517" y2="10.239"/><linearGradient id="gradient_ice-4" x1="2.935" x2="54.019" xlink:href="#gradient_ice" y1="68.755" y2="12.477"/><linearGradient id="gradient_ice-5" x1="17.811" x2="68.895" xlink:href="#gradient_ice" y1="82.259" y2="25.98"/><path d="m35 18h-16a1 1 0 0 0 -1 1v22a1 1 0 0 0 1 1h16a1 1 0 0 0 1-1v-22a1 1 0 0 0 -1-1zm-1 22h-14v-1a7 7 0 0 1 14 0zm-10-13a3 3 0 1 1 3 3 3 3 0 0 1 -3-3zm10 6.356a9.038 9.038 0 0 0 -3.623-2.693 5 5 0 1 0 -6.754 0 9.038 9.038 0 0 0 -3.623 2.693v-13.356h14z" fill="url(#gradient_ice)"/><path d="m27 5a3 3 0 1 0 3 3 3 3 0 0 0 -3-3zm0 4a1 1 0 1 1 1-1 1 1 0 0 1 -1 1z" fill="url(#gradient_ice-2)"/><path d="m17 44h6v2h-6z" fill="url(#gradient_ice-3)"/><path d="m48 36a12.9 12.9 0 0 0 -3 .36v-22.36a3.009 3.009 0 0 0 -3-3h-9v-8a1 1 0 0 0 -1-1h-10a1 1 0 0 0 -1 1v8h-9a3.009 3.009 0 0 0 -3 3v38a3.009 3.009 0 0 0 3 3h24.48a13 13 0 1 0 11.52-19zm-25-32h8v10h-8zm13 40h-11v2h10.36a14.605 14.605 0 0 0 -.3 2h-16.06v2h16.04a12.978 12.978 0 0 0 .6 3h-23.64a1 1 0 0 1 -1-1v-38a1 1 0 0 1 1-1h9v2a1 1 0 0 0 1 1h10a1 1 0 0 0 1-1v-2h9a1 1 0 0 1 1 1v23a13.108 13.108 0 0 0 -7 7zm12 16a11 11 0 1 1 11-11 11.007 11.007 0 0 1 -11 11z" fill="url(#gradient_ice-4)"/><path d="m49 48v-7h-2v7h-7v2h7v7h2v-7h7v-2z" fill="url(#gradient_ice-5)"/></svg>